<?xml version="1.0" encoding="utf-8"?>
<!-- Generator: Adobe Illustrator 23.0.1, SVG Export Plug-In . SVG Version: 6.00 Build 0)  -->
<svg version="1.1" id="Capa_1" xmlns="http://www.w3.org/2000/svg" xmlns:xlink="http://www.w3.org/1999/xlink" x="0px" y="0px"
	 viewBox="0 0 492 492" style="enable-background:new 0 0 492 492;" xml:space="preserve">
<style type="text/css">
	.st0{fill:#D1D1D1;}
</style>
<g>
	<g>
		<path class="st0" d="M482,363.3c2.7,0.7,5,0.3,7-1c2-1.3,3-3.3,3-6v-36c0-6.7-3-12-9-16l-187-111c-6-3.3-9-8.7-9-16v-125
			c0-6.7-1.3-13-4-19c-7.3-18.7-17.7-29-31-31c-2-0.7-4-1-6-1s-4.3,0.3-7,1c-0.7,0-1.5,0.2-2.5,0.5s-2.2,0.8-3.5,1.5
			c-4.7,1.3-9,4.3-13,9s-7,9-9,13l-3,7c-2,6-3,12.3-3,19v125c0,7.3-3,12.7-9,16L9,304.3c-6,4-9,9.3-9,16v36c0,2.7,1,4.7,3,6
			c2,1.3,4.3,1.7,7,1l185-60c2.7-1.3,5-1.2,7,0.5c2,1.7,3,3.8,3,6.5v97c0,7.3-2.7,13-8,17l-25,18c-5.3,4-8,9.7-8,17v24
			c0,2.7,1,4.7,3,6s4.3,1.7,7,1l62-18c6.7-2,13.3-2,20,0l62,18c2.7,0.7,5,0.3,7-1s3-3.3,3-6v-24c0-7.3-2.7-13-8-17l-25-18
			c-5.3-4-8-9.7-8-17v-97c0-3.3,1-5.7,3-7c2-1.3,4.3-1.3,7,0L482,363.3z"/>
	</g>
</g>
</svg>
