<?xml version="1.0" encoding="iso-8859-1"?>
<!-- Generator: Adobe Illustrator 19.0.0, SVG Export Plug-In . SVG Version: 6.00 Build 0)  -->
<svg xmlns="http://www.w3.org/2000/svg" xmlns:xlink="http://www.w3.org/1999/xlink" version="1.1" id="Layer_1" x="0px" y="0px" viewBox="0 0 290.627 290.627" style="enable-background:new 0 0 290.627 290.627;" xml:space="preserve" width="512px" height="512px">
<g>
	<g>
		<g>
			<path d="M262.501,0c-10.383,0-19.448,5.672-24.319,14.063H0.001v9.375h234.797c-0.258,1.528-0.422,3.089-0.422,4.688     s0.164,3.159,0.422,4.688H0.001v9.375h46.875v23.438H0.001v225h243.75v-225h-46.875V42.188h41.306     c4.87,8.391,13.936,14.063,24.319,14.063c15.511,0,28.125-12.614,28.125-28.125C290.626,12.615,278.012,0,262.501,0z      M196.877,103.125v-8.071c2.788,1.627,4.687,4.617,4.687,8.071c0,5.17-4.205,9.375-9.375,9.375c-5.17,0-9.375-4.205-9.375-9.375     c0-3.455,1.898-6.445,4.688-8.072v8.072H196.877z M56.251,42.188h131.25v23.437H56.251V42.188z M46.877,95.053v8.072h9.375     v-8.071c2.788,1.627,4.687,4.617,4.687,8.071c0,5.17-4.205,9.375-9.375,9.375c-5.17,0-9.375-4.205-9.375-9.375     C42.189,99.67,44.087,96.68,46.877,95.053z M234.376,75v206.25h-225V75h37.5v10.041c-8.067,2.095-14.063,9.375-14.063,18.084     c0,10.341,8.409,18.75,18.75,18.75s18.75-8.409,18.75-18.75c0-8.709-5.995-15.989-14.063-18.084V75h131.251v10.041     c-8.067,2.095-14.063,9.375-14.063,18.084c0,10.341,8.409,18.75,18.75,18.75s18.75-8.409,18.75-18.75     c0-8.709-5.995-15.989-14.063-18.084V75H234.376z M262.501,46.875c-10.341,0-18.75-8.409-18.75-18.75s8.409-18.75,18.75-18.75     s18.75,8.409,18.75,18.75S272.842,46.875,262.501,46.875z" fill="#014c84"/>
			<polygon points="60.939,178.125 60.939,140.625 51.564,140.625 51.564,154.688 37.501,154.688 37.501,140.625 28.126,140.625      28.126,178.125 37.501,178.125 37.501,164.063 51.564,164.063 51.564,178.125    " fill="#014c84"/>
			<path d="M86.72,178.125c9.047,0,16.406-7.359,16.406-16.406v-4.688c0-9.047-7.359-16.406-16.406-16.406     s-16.406,7.359-16.406,16.406v4.688C70.314,170.766,77.673,178.125,86.72,178.125z M79.689,157.031     c0-3.877,3.155-7.031,7.031-7.031c3.876,0,7.031,3.155,7.031,7.031v4.688c0,3.877-3.155,7.031-7.031,7.031     c-3.876,0-7.031-3.155-7.031-7.031V157.031z" fill="#014c84"/>
			<polygon points="121.876,178.125 131.251,178.125 131.251,150 140.626,150 140.626,140.625 112.501,140.625 112.501,150      121.876,150    " fill="#014c84"/>
			<polygon points="178.126,168.75 159.376,168.75 159.376,164.063 178.126,164.063 178.126,154.688 159.376,154.688 159.376,150      178.126,150 178.126,140.625 150.001,140.625 150.001,178.125 178.126,178.125    " fill="#014c84"/>
			<polygon points="196.876,140.625 187.501,140.625 187.501,178.125 215.626,178.125 215.626,168.75 196.876,168.75    " fill="#014c84"/>
			<path d="M121.876,204.933l-23.878,19.102l-37.786-21.591l5.789,69.431h111.75l5.784-69.431l-37.786,21.591L121.876,204.933z      M169.126,262.5h-94.5l-3.591-43.069l27.839,15.909l23.002-18.398l22.997,18.398l27.839-15.909L169.126,262.5z" fill="#014c84"/>
			<path d="M121.876,229.688c-7.753,0-14.063,6.309-14.063,14.063c0,7.754,6.309,14.063,14.063,14.063s14.063-6.309,14.063-14.063     C135.939,235.997,129.629,229.688,121.876,229.688z M121.876,248.438c-2.588,0-4.688-2.105-4.688-4.688s2.1-4.688,4.688-4.688     s4.688,2.105,4.688,4.688S124.464,248.438,121.876,248.438z" fill="#014c84"/>
			<circle cx="60.939" cy="196.875" r="4.688" fill="#014c84"/>
			<circle cx="121.876" cy="196.875" r="4.688" fill="#014c84"/>
			<circle cx="182.814" cy="196.875" r="4.688" fill="#014c84"/>
		</g>
	</g>
</g>
<g>
</g>
<g>
</g>
<g>
</g>
<g>
</g>
<g>
</g>
<g>
</g>
<g>
</g>
<g>
</g>
<g>
</g>
<g>
</g>
<g>
</g>
<g>
</g>
<g>
</g>
<g>
</g>
<g>
</g>
</svg>
